<svg class="svg-icon" style="width: 1em; height: 1em;vertical-align: middle;fill: currentColor;overflow: hidden;" viewBox="0 0 1024 1024" version="1.1" xmlns="http://www.w3.org/2000/svg"><path d="M329.984 619.776H79.616C35.84 619.776 0 655.488 0 699.136v181.44C0 924.288 35.84 960 79.616 960h250.368c43.776 0 79.616-35.712 79.616-79.36v-181.504c0-43.648-35.84-79.36-79.616-79.36z m614.4 0h-250.368c-43.776 0-79.616 35.712-79.616 79.36v181.44c0 43.712 35.84 79.424 79.616 79.424h250.368C988.16 960 1024 924.288 1024 880.64v-181.504c0-43.648-35.84-79.36-79.616-79.36zM204.8 585.728c18.752 0 34.112-15.36 34.112-34.048v-45.376h546.176v45.44a34.176 34.176 0 0 0 68.224 0V472.32a34.176 34.176 0 0 0-34.112-34.048H544.448a36.48 36.48 0 0 0 1.664-11.328v-56.704h96.704c43.84 0 79.68-35.712 79.68-79.36V143.36c0-43.712-35.84-79.424-79.68-79.424H381.184C337.28 64 301.44 99.712 301.44 143.36v147.456c0 43.712 35.84 79.36 79.68 79.36h96.64v56.768c0 3.968 0.64 7.936 1.728 11.328H204.8a34.176 34.176 0 0 0-34.112 34.048v79.36c0 18.752 15.36 34.048 34.112 34.048z" fill="#000000" /></svg>