<svg class="svg-icon" style="width: 1em; height: 1em;vertical-align: middle;fill: currentColor;overflow: hidden;" viewBox="0 0 1024 1024" version="1.1" xmlns="http://www.w3.org/2000/svg"><path d="M128 128h64v608H128zM224 128h32v608h-32zM288 128h32v608h-32zM352 128h64v608h-64zM448 128h32v608h-32zM512 128h96v608h-96zM640 128h32v608h-32zM704 128h32v608h-32zM768 128h64v608h-64zM864 128h32v608h-32z"  /><path d="M144.736 895.44v-74.512H128v-9.024h27.2v83.536h-10.464zM252.752 837.104v17.344c0 3.056-0.016 6-0.048 8.88l-0.048 7.456a33.328 33.328 0 0 1-1.664 10.128 20.752 20.752 0 0 1-11.936 13.04 27.712 27.712 0 0 1-10.272 1.936c-2.768 0.08-5.792 0.112-9.12 0.112a108 108 0 0 1-8.976-0.336c-6.88-0.528-12.288-2.912-16.224-7.152-3.952-4.24-5.92-9.776-5.92-16.608 0-2.304-0.016-4.896-0.08-7.776l-0.192-9.008a467.424 467.424 0 0 1 0.112-18.144c0.176-3.712 0.736-7.072 1.664-10.048 0.928-2.992 2.304-5.584 4.144-7.776 1.84-2.192 4.192-3.936 7.04-5.216s6.24-1.984 10.144-2.144c2.928-0.144 6.032-0.24 9.296-0.272 3.264-0.048 6.592 0.048 9.968 0.272 7.616 0.576 13.2 3.104 16.72 7.568 3.52 4.512 5.312 10.416 5.392 17.744z m-10.016 35.024c0.144-2.752 0.24-5.856 0.272-9.328 0.032-3.472 0.032-6.944 0-10.4l-0.112-10.016a193.872 193.872 0 0 0-0.272-8.448c-0.224-4.432-1.648-7.76-4.272-10.016-2.144-1.84-5.44-2.912-9.92-3.2a74.08 74.08 0 0 0-3.744-0.176 190.32 190.32 0 0 0-8.752 0 74.592 74.592 0 0 0-3.776 0.176c-8.592 0.448-13.04 4.864-13.344 13.232-0.304 6.88-0.48 13.36-0.56 19.456-0.064 6.112 0.032 12.464 0.336 19.072 0.224 4.544 1.44 8 3.632 10.384 2.192 2.4 5.552 3.76 10.048 4.144a100.56 100.56 0 0 0 15.376 0.288c9.6-0.736 14.624-5.776 15.088-15.168zM287.68 895.44v-74.512h-16.736v-9.024h27.2v83.536h-10.464zM395.696 837.104v17.344c0 3.056-0.016 6-0.048 8.88l-0.048 7.456a33.328 33.328 0 0 1-1.664 10.128 20.752 20.752 0 0 1-11.936 13.04 27.712 27.712 0 0 1-10.272 1.936c-2.768 0.08-5.792 0.112-9.12 0.112a108 108 0 0 1-8.976-0.336c-6.88-0.528-12.288-2.912-16.224-7.152-3.952-4.24-5.92-9.776-5.92-16.608 0-2.304-0.016-4.896-0.08-7.776l-0.192-9.008a467.424 467.424 0 0 1 0.112-18.144c0.176-3.712 0.736-7.072 1.664-10.048s2.304-5.584 4.144-7.776c1.84-2.192 4.192-3.936 7.04-5.216 2.848-1.264 6.24-1.984 10.144-2.144 2.928-0.144 6.032-0.24 9.296-0.272 3.264-0.048 6.592 0.048 9.968 0.272 7.616 0.576 13.2 3.104 16.72 7.568 3.52 4.512 5.328 10.416 5.392 17.744z m-10.016 35.024c0.144-2.752 0.24-5.856 0.272-9.328 0.032-3.472 0.032-6.944 0-10.4l-0.112-10.016a193.872 193.872 0 0 0-0.272-8.448c-0.224-4.432-1.648-7.76-4.272-10.016-2.144-1.84-5.44-2.912-9.92-3.2a74.08 74.08 0 0 0-3.744-0.176 190.32 190.32 0 0 0-8.752 0 74.592 74.592 0 0 0-3.776 0.176c-8.592 0.448-13.04 4.864-13.344 13.232-0.304 6.88-0.48 13.36-0.56 19.456-0.064 6.112 0.032 12.464 0.336 19.072 0.224 4.544 1.44 8 3.632 10.384 2.192 2.4 5.552 3.76 10.048 4.144a100.56 100.56 0 0 0 15.376 0.288c9.6-0.736 14.64-5.776 15.088-15.168zM467.168 837.104v17.344c0 3.056-0.016 6-0.048 8.88l-0.048 7.456a33.328 33.328 0 0 1-1.664 10.128 20.752 20.752 0 0 1-11.936 13.04 27.712 27.712 0 0 1-10.272 1.936c-2.768 0.08-5.792 0.112-9.12 0.112a108 108 0 0 1-8.976-0.336c-6.88-0.528-12.288-2.912-16.224-7.152-3.952-4.24-5.92-9.776-5.92-16.608 0-2.304-0.016-4.896-0.08-7.776l-0.192-9.008a467.424 467.424 0 0 1 0.112-18.144c0.176-3.712 0.736-7.072 1.664-10.048s2.304-5.584 4.144-7.776c1.84-2.192 4.192-3.936 7.04-5.216 2.848-1.264 6.24-1.984 10.144-2.144 2.928-0.144 6.032-0.24 9.296-0.272 3.264-0.048 6.592 0.048 9.968 0.272 7.616 0.576 13.2 3.104 16.72 7.568 3.52 4.512 5.328 10.416 5.392 17.744z m-10.016 35.024c0.144-2.752 0.24-5.856 0.272-9.328 0.032-3.472 0.032-6.944 0-10.4l-0.112-10.016a193.872 193.872 0 0 0-0.272-8.448c-0.224-4.432-1.648-7.76-4.272-10.016-2.144-1.84-5.44-2.912-9.92-3.2a74.08 74.08 0 0 0-3.744-0.176 190.32 190.32 0 0 0-8.752 0 74.592 74.592 0 0 0-3.776 0.176c-8.592 0.448-13.04 4.864-13.344 13.232-0.304 6.88-0.48 13.36-0.56 19.456-0.064 6.112 0.032 12.464 0.336 19.072 0.224 4.544 1.44 8 3.632 10.384 2.192 2.4 5.552 3.76 10.048 4.144a100.56 100.56 0 0 0 15.376 0.288c9.6-0.736 14.624-5.776 15.088-15.168zM502.096 895.44v-74.512h-16.736v-9.024h27.2v83.536h-10.464zM610.112 837.104v17.344c0 3.056-0.016 6-0.048 8.88-0.048 2.88-0.064 5.344-0.064 7.456a34.336 34.336 0 0 1-1.648 10.128c-1.056 3.088-2.56 5.712-4.576 7.904a20.608 20.608 0 0 1-7.376 5.136 27.808 27.808 0 0 1-10.288 1.936c-2.72 0.08-5.76 0.112-9.072 0.112-3.328 0-6.32-0.112-8.992-0.336-6.88-0.528-12.272-2.912-16.224-7.152-3.936-4.24-5.904-9.776-5.904-16.608 0-2.304-0.032-4.896-0.08-7.776l-0.208-9.008a260.96 260.96 0 0 1-0.048-9.36 659.2 659.2 0 0 1 0.16-8.784c0.192-3.712 0.752-7.072 1.664-10.048s2.304-5.584 4.144-7.776 4.176-3.936 7.04-5.216 6.24-1.984 10.128-2.144c2.944-0.144 6.032-0.24 9.312-0.272 3.248-0.048 6.592 0.048 9.952 0.272 7.616 0.576 13.2 3.104 16.736 7.568 3.52 4.512 5.312 10.416 5.392 17.744z m-10.016 35.024c0.144-2.752 0.24-5.856 0.288-9.328 0.032-3.472 0.032-6.944 0-10.4l-0.112-10.016a191.488 191.488 0 0 0-0.288-8.448c-0.224-4.432-1.648-7.76-4.288-10.016-2.128-1.84-5.44-2.912-9.904-3.2a74.08 74.08 0 0 0-3.744-0.176 189.04 189.04 0 0 0-8.752 0 74.592 74.592 0 0 0-3.776 0.176c-8.592 0.448-13.056 4.864-13.344 13.232-0.304 6.88-0.496 13.36-0.576 19.456a323.2 323.2 0 0 0 0.336 19.072c0.24 4.544 1.44 8 3.632 10.384 2.192 2.4 5.536 3.76 10.048 4.144a100.384 100.384 0 0 0 15.36 0.288c9.648-0.736 14.672-5.776 15.12-15.168zM645.024 895.44v-74.512h-16.72v-9.024h27.2v83.536h-10.48zM753.056 837.104v17.344c0 3.056-0.016 6-0.048 8.88-0.048 2.88-0.064 5.344-0.064 7.456a34.336 34.336 0 0 1-1.648 10.128c-1.056 3.088-2.56 5.712-4.576 7.904a20.608 20.608 0 0 1-7.376 5.136 27.808 27.808 0 0 1-10.288 1.936c-2.72 0.08-5.76 0.112-9.072 0.112-3.328 0-6.32-0.112-8.992-0.336-6.88-0.528-12.272-2.912-16.224-7.152-3.936-4.24-5.904-9.776-5.904-16.608 0-2.304-0.032-4.896-0.08-7.776l-0.208-9.008a260.96 260.96 0 0 1-0.048-9.36 659.2 659.2 0 0 1 0.16-8.784c0.192-3.712 0.752-7.072 1.664-10.048s2.304-5.584 4.144-7.776 4.176-3.936 7.04-5.216 6.24-1.984 10.128-2.144c2.944-0.144 6.032-0.24 9.312-0.272 3.248-0.048 6.592 0.048 9.952 0.272 7.616 0.576 13.2 3.104 16.736 7.568 3.52 4.512 5.312 10.416 5.392 17.744z m-10.016 35.024c0.144-2.752 0.24-5.856 0.288-9.328 0.032-3.472 0.032-6.944 0-10.4l-0.112-10.016a191.488 191.488 0 0 0-0.288-8.448c-0.224-4.432-1.648-7.76-4.288-10.016-2.128-1.84-5.44-2.912-9.904-3.2a74.08 74.08 0 0 0-3.744-0.176 189.04 189.04 0 0 0-8.752 0 74.592 74.592 0 0 0-3.776 0.176c-8.592 0.448-13.056 4.864-13.344 13.232-0.304 6.88-0.496 13.36-0.576 19.456a323.2 323.2 0 0 0 0.336 19.072c0.24 4.544 1.44 8 3.632 10.384 2.192 2.4 5.536 3.76 10.048 4.144a100.384 100.384 0 0 0 15.36 0.288c9.632-0.736 14.672-5.776 15.12-15.168zM787.984 895.44v-74.512h-16.72v-9.024h27.2v83.536h-10.48zM896 837.104v17.344c0 3.056-0.016 6-0.048 8.88-0.048 2.88-0.064 5.344-0.064 7.456a34.336 34.336 0 0 1-1.648 10.128c-1.056 3.088-2.56 5.712-4.576 7.904a20.608 20.608 0 0 1-7.376 5.136 27.808 27.808 0 0 1-10.288 1.936c-2.72 0.08-5.76 0.112-9.072 0.112-3.328 0-6.32-0.112-8.992-0.336-6.88-0.528-12.272-2.912-16.224-7.152-3.936-4.24-5.904-9.776-5.904-16.608 0-2.304-0.032-4.896-0.08-7.776l-0.208-9.008a260.96 260.96 0 0 1-0.048-9.36 659.2 659.2 0 0 1 0.16-8.784c0.192-3.712 0.752-7.072 1.664-10.048s2.304-5.584 4.144-7.776c1.84-2.192 4.176-3.936 7.04-5.216 2.864-1.264 6.24-1.984 10.128-2.144 2.944-0.144 6.032-0.24 9.312-0.272 3.248-0.048 6.592 0.048 9.952 0.272 7.616 0.576 13.2 3.104 16.736 7.568 3.52 4.512 5.312 10.416 5.392 17.744z m-10.016 35.024c0.144-2.752 0.24-5.856 0.288-9.328 0.032-3.472 0.032-6.944 0-10.4l-0.112-10.016a191.488 191.488 0 0 0-0.288-8.448c-0.224-4.432-1.648-7.76-4.288-10.016-2.128-1.84-5.44-2.912-9.904-3.2a74.08 74.08 0 0 0-3.744-0.176 189.04 189.04 0 0 0-8.752 0 74.592 74.592 0 0 0-3.776 0.176c-8.592 0.448-13.056 4.864-13.344 13.232-0.304 6.88-0.496 13.36-0.576 19.456a323.2 323.2 0 0 0 0.336 19.072c0.24 4.544 1.44 8 3.632 10.384 2.192 2.4 5.536 3.76 10.048 4.144a100.384 100.384 0 0 0 15.36 0.288c9.632-0.736 14.672-5.776 15.12-15.168z"  /></svg>